<mxfile host="65bd71144e">
    <diagram id="QtdgglnyIc4WALxEzRb2" name="Page-1">
        <mxGraphModel dx="1567" dy="904" grid="1" gridSize="10" guides="1" tooltips="1" connect="1" arrows="1" fold="1" page="1" pageScale="1" pageWidth="827" pageHeight="1169" math="0" shadow="0">
            <root>
                <mxCell id="0"/>
                <mxCell id="1" parent="0"/>
                <mxCell id="30" style="edgeStyle=none;html=1;" edge="1" parent="1" source="2" target="7">
                    <mxGeometry relative="1" as="geometry"/>
                </mxCell>
                <mxCell id="31" style="edgeStyle=none;html=1;entryX=0.5;entryY=0;entryDx=0;entryDy=0;" edge="1" parent="1" source="2" target="5">
                    <mxGeometry relative="1" as="geometry"/>
                </mxCell>
                <mxCell id="32" style="edgeStyle=none;html=1;entryX=0.5;entryY=0;entryDx=0;entryDy=0;" edge="1" parent="1" source="2" target="10">
                    <mxGeometry relative="1" as="geometry"/>
                </mxCell>
                <mxCell id="2" value="" style="ellipse;" vertex="1" parent="1">
                    <mxGeometry x="160" y="40" width="40" height="40" as="geometry"/>
                </mxCell>
                <mxCell id="5" value="" style="align=right;verticalAlign=top;spacingRight=2;" vertex="1" parent="1">
                    <mxGeometry x="-20" y="130" width="120" height="50" as="geometry"/>
                </mxCell>
                <mxCell id="6" value="Frontpage" style="text;html=1;strokeColor=none;fillColor=none;align=center;verticalAlign=middle;spacingLeft=4;spacingRight=4;overflow=hidden;rotatable=0;points=[[0,0.5],[1,0.5]];portConstraint=eastwest;resizeWidth=1;" vertex="1" parent="5">
                    <mxGeometry y="1" width="120" height="30" relative="1" as="geometry">
                        <mxPoint y="-30" as="offset"/>
                    </mxGeometry>
                </mxCell>
                <mxCell id="14" style="edgeStyle=none;html=1;entryX=0.5;entryY=0;entryDx=0;entryDy=0;" edge="1" parent="1" source="7" target="12">
                    <mxGeometry relative="1" as="geometry"/>
                </mxCell>
                <mxCell id="7" value="" style="align=right;verticalAlign=top;spacingRight=2;" vertex="1" parent="1">
                    <mxGeometry x="120" y="130" width="120" height="50" as="geometry"/>
                </mxCell>
                <mxCell id="8" value="Find a mushroom" style="text;html=1;strokeColor=none;fillColor=none;align=center;verticalAlign=middle;spacingLeft=4;spacingRight=4;overflow=hidden;rotatable=0;points=[[0,0.5],[1,0.5]];portConstraint=eastwest;resizeWidth=1;" vertex="1" parent="7">
                    <mxGeometry y="1" width="120" height="30" relative="1" as="geometry">
                        <mxPoint y="-30" as="offset"/>
                    </mxGeometry>
                </mxCell>
                <mxCell id="10" value="" style="align=right;verticalAlign=top;spacingRight=2;" vertex="1" parent="1">
                    <mxGeometry x="260" y="130" width="120" height="50" as="geometry"/>
                </mxCell>
                <mxCell id="11" value="Map" style="text;html=1;strokeColor=none;fillColor=none;align=center;verticalAlign=middle;spacingLeft=4;spacingRight=4;overflow=hidden;rotatable=0;points=[[0,0.5],[1,0.5]];portConstraint=eastwest;resizeWidth=1;" vertex="1" parent="10">
                    <mxGeometry y="1" width="120" height="30" relative="1" as="geometry">
                        <mxPoint y="-30" as="offset"/>
                    </mxGeometry>
                </mxCell>
                <mxCell id="27" style="edgeStyle=none;html=1;entryX=0.5;entryY=0;entryDx=0;entryDy=0;" edge="1" parent="1" source="12" target="25">
                    <mxGeometry relative="1" as="geometry">
                        <Array as="points">
                            <mxPoint x="380" y="255"/>
                        </Array>
                    </mxGeometry>
                </mxCell>
                <mxCell id="12" value="" style="align=right;verticalAlign=top;spacingRight=2;" vertex="1" parent="1">
                    <mxGeometry x="120" y="230" width="120" height="50" as="geometry"/>
                </mxCell>
                <mxCell id="13" value="Seasonsite" style="text;html=1;strokeColor=none;fillColor=none;align=center;verticalAlign=middle;spacingLeft=4;spacingRight=4;overflow=hidden;rotatable=0;points=[[0,0.5],[1,0.5]];portConstraint=eastwest;resizeWidth=1;" vertex="1" parent="12">
                    <mxGeometry y="1" width="120" height="30" relative="1" as="geometry">
                        <mxPoint y="-30" as="offset"/>
                    </mxGeometry>
                </mxCell>
                <mxCell id="17" style="edgeStyle=none;html=1;entryX=0.392;entryY=-0.07;entryDx=0;entryDy=0;entryPerimeter=0;" edge="1" parent="12" source="13" target="15">
                    <mxGeometry relative="1" as="geometry">
                        <Array as="points">
                            <mxPoint x="-173" y="35"/>
                        </Array>
                    </mxGeometry>
                </mxCell>
                <mxCell id="28" style="edgeStyle=none;html=1;entryX=0.5;entryY=0;entryDx=0;entryDy=0;" edge="1" parent="12" source="13" target="23">
                    <mxGeometry relative="1" as="geometry"/>
                </mxCell>
                <mxCell id="33" style="edgeStyle=none;html=1;entryX=0.5;entryY=0;entryDx=0;entryDy=0;" edge="1" parent="12" source="13" target="18">
                    <mxGeometry relative="1" as="geometry"/>
                </mxCell>
                <mxCell id="43" style="edgeStyle=none;html=1;entryX=0.5;entryY=0;entryDx=0;entryDy=0;" edge="1" parent="1" source="15" target="34">
                    <mxGeometry relative="1" as="geometry"/>
                </mxCell>
                <mxCell id="15" value="" style="align=right;verticalAlign=top;spacingRight=2;" vertex="1" parent="1">
                    <mxGeometry x="-100" y="330" width="120" height="50" as="geometry"/>
                </mxCell>
                <mxCell id="16" value="Spring" style="text;html=1;strokeColor=none;fillColor=none;align=center;verticalAlign=middle;spacingLeft=4;spacingRight=4;overflow=hidden;rotatable=0;points=[[0,0.5],[1,0.5]];portConstraint=eastwest;resizeWidth=1;" vertex="1" parent="15">
                    <mxGeometry y="1" width="120" height="30" relative="1" as="geometry">
                        <mxPoint y="-30" as="offset"/>
                    </mxGeometry>
                </mxCell>
                <mxCell id="44" style="edgeStyle=none;html=1;entryX=0.5;entryY=0;entryDx=0;entryDy=0;" edge="1" parent="1" source="18" target="37">
                    <mxGeometry relative="1" as="geometry"/>
                </mxCell>
                <mxCell id="18" value="" style="align=right;verticalAlign=top;spacingRight=2;" vertex="1" parent="1">
                    <mxGeometry x="40" y="330" width="120" height="50" as="geometry"/>
                </mxCell>
                <mxCell id="19" value="Summer" style="text;html=1;strokeColor=none;fillColor=none;align=center;verticalAlign=middle;spacingLeft=4;spacingRight=4;overflow=hidden;rotatable=0;points=[[0,0.5],[1,0.5]];portConstraint=eastwest;resizeWidth=1;" vertex="1" parent="18">
                    <mxGeometry y="1" width="120" height="30" relative="1" as="geometry">
                        <mxPoint y="-30" as="offset"/>
                    </mxGeometry>
                </mxCell>
                <mxCell id="45" style="edgeStyle=none;html=1;entryX=0.5;entryY=0;entryDx=0;entryDy=0;" edge="1" parent="1" source="23" target="39">
                    <mxGeometry relative="1" as="geometry"/>
                </mxCell>
                <mxCell id="23" value="" style="align=right;verticalAlign=top;spacingRight=2;" vertex="1" parent="1">
                    <mxGeometry x="180" y="330" width="120" height="50" as="geometry"/>
                </mxCell>
                <mxCell id="24" value="Summer" style="text;html=1;strokeColor=none;fillColor=none;align=center;verticalAlign=middle;spacingLeft=4;spacingRight=4;overflow=hidden;rotatable=0;points=[[0,0.5],[1,0.5]];portConstraint=eastwest;resizeWidth=1;" vertex="1" parent="23">
                    <mxGeometry y="1" width="120" height="30" relative="1" as="geometry">
                        <mxPoint y="-30" as="offset"/>
                    </mxGeometry>
                </mxCell>
                <mxCell id="46" style="edgeStyle=none;html=1;entryX=0.5;entryY=0;entryDx=0;entryDy=0;" edge="1" parent="1" source="25" target="41">
                    <mxGeometry relative="1" as="geometry"/>
                </mxCell>
                <mxCell id="25" value="" style="align=right;verticalAlign=top;spacingRight=2;" vertex="1" parent="1">
                    <mxGeometry x="320" y="330" width="120" height="50" as="geometry"/>
                </mxCell>
                <mxCell id="26" value="Summer" style="text;html=1;strokeColor=none;fillColor=none;align=center;verticalAlign=middle;spacingLeft=4;spacingRight=4;overflow=hidden;rotatable=0;points=[[0,0.5],[1,0.5]];portConstraint=eastwest;resizeWidth=1;" vertex="1" parent="25">
                    <mxGeometry y="1" width="120" height="30" relative="1" as="geometry">
                        <mxPoint y="-30" as="offset"/>
                    </mxGeometry>
                </mxCell>
                <mxCell id="49" style="edgeStyle=none;html=1;entryX=0.25;entryY=0;entryDx=0;entryDy=0;" edge="1" parent="1" source="34" target="47">
                    <mxGeometry relative="1" as="geometry"/>
                </mxCell>
                <mxCell id="34" value="" style="align=right;verticalAlign=top;spacingRight=2;" vertex="1" parent="1">
                    <mxGeometry x="-100" y="430" width="120" height="50" as="geometry"/>
                </mxCell>
                <mxCell id="35" value="Mushroom site&lt;br&gt;" style="text;html=1;strokeColor=none;fillColor=none;align=center;verticalAlign=middle;spacingLeft=4;spacingRight=4;overflow=hidden;rotatable=0;points=[[0,0.5],[1,0.5]];portConstraint=eastwest;resizeWidth=1;" vertex="1" parent="34">
                    <mxGeometry y="1" width="120" height="30" relative="1" as="geometry">
                        <mxPoint y="-30" as="offset"/>
                    </mxGeometry>
                </mxCell>
                <mxCell id="50" style="edgeStyle=none;html=1;entryX=0.33;entryY=0.025;entryDx=0;entryDy=0;entryPerimeter=0;" edge="1" parent="1" source="37" target="47">
                    <mxGeometry relative="1" as="geometry"/>
                </mxCell>
                <mxCell id="37" value="" style="align=right;verticalAlign=top;spacingRight=2;" vertex="1" parent="1">
                    <mxGeometry x="40" y="430" width="120" height="50" as="geometry"/>
                </mxCell>
                <mxCell id="38" value="Mushroom site&lt;br&gt;" style="text;html=1;strokeColor=none;fillColor=none;align=center;verticalAlign=middle;spacingLeft=4;spacingRight=4;overflow=hidden;rotatable=0;points=[[0,0.5],[1,0.5]];portConstraint=eastwest;resizeWidth=1;" vertex="1" parent="37">
                    <mxGeometry y="1" width="120" height="30" relative="1" as="geometry">
                        <mxPoint y="-30" as="offset"/>
                    </mxGeometry>
                </mxCell>
                <mxCell id="51" style="edgeStyle=none;html=1;entryX=0.75;entryY=0;entryDx=0;entryDy=0;" edge="1" parent="1" source="39" target="47">
                    <mxGeometry relative="1" as="geometry"/>
                </mxCell>
                <mxCell id="39" value="" style="align=right;verticalAlign=top;spacingRight=2;" vertex="1" parent="1">
                    <mxGeometry x="180" y="430" width="120" height="50" as="geometry"/>
                </mxCell>
                <mxCell id="40" value="Mushroom site&lt;br&gt;" style="text;html=1;strokeColor=none;fillColor=none;align=center;verticalAlign=middle;spacingLeft=4;spacingRight=4;overflow=hidden;rotatable=0;points=[[0,0.5],[1,0.5]];portConstraint=eastwest;resizeWidth=1;" vertex="1" parent="39">
                    <mxGeometry y="1" width="120" height="30" relative="1" as="geometry">
                        <mxPoint y="-30" as="offset"/>
                    </mxGeometry>
                </mxCell>
                <mxCell id="52" style="edgeStyle=none;html=1;entryX=0.875;entryY=-0.044;entryDx=0;entryDy=0;entryPerimeter=0;" edge="1" parent="1" source="41" target="47">
                    <mxGeometry relative="1" as="geometry"/>
                </mxCell>
                <mxCell id="41" value="" style="align=right;verticalAlign=top;spacingRight=2;" vertex="1" parent="1">
                    <mxGeometry x="320" y="430" width="120" height="50" as="geometry"/>
                </mxCell>
                <mxCell id="42" value="Mushroom site&lt;br&gt;" style="text;html=1;strokeColor=none;fillColor=none;align=center;verticalAlign=middle;spacingLeft=4;spacingRight=4;overflow=hidden;rotatable=0;points=[[0,0.5],[1,0.5]];portConstraint=eastwest;resizeWidth=1;" vertex="1" parent="41">
                    <mxGeometry y="1" width="120" height="30" relative="1" as="geometry">
                        <mxPoint y="-30" as="offset"/>
                    </mxGeometry>
                </mxCell>
                <mxCell id="47" value="" style="align=right;verticalAlign=top;spacingRight=2;" vertex="1" parent="1">
                    <mxGeometry x="90" y="562" width="160" height="45" as="geometry"/>
                </mxCell>
                <mxCell id="48" value="Mushroom description" style="text;html=1;strokeColor=none;fillColor=none;align=center;verticalAlign=middle;spacingLeft=4;spacingRight=4;overflow=hidden;rotatable=0;points=[[0,0.5],[1,0.5]];portConstraint=eastwest;resizeWidth=1;" vertex="1" parent="47">
                    <mxGeometry y="1" width="160" height="30" relative="1" as="geometry">
                        <mxPoint y="-30" as="offset"/>
                    </mxGeometry>
                </mxCell>
            </root>
        </mxGraphModel>
    </diagram>
</mxfile>